<svg xmlns="http://www.w3.org/2000/svg" viewBox="0 0 500 500"><g id="freepik--background-complete--inject-13"><path d="M263.64,449.15l-9.25-142.1,.31-.02,10.5,142.01c-.52,.04-1.04,.08-1.57,.11Zm-28.7-.1l-1.37-.11,11.36-141.94,.51,.04-10.5,142.01Zm59.18-4.26l-31.07-138.97,.67-.15,31.56,138.86-1.17,.26Zm-89.23-.22l-1.34-.31,32.36-138.67,.5,.11-31.51,138.87Zm118.2-8.51l-51.15-132.9,.37-.14,52.16,132.5c-.46,.18-.92,.36-1.38,.54Zm-147.32-.45l-1.28-.51,52.74-132.27,.48,.19-51.94,132.59Zm174.92-12.64l-70.65-123.64,.47-.27,71.33,123.25-1.16,.66Zm-202.4-.6c-.42-.24-.84-.49-1.27-.74l72.18-122.75,.37,.21-71.28,123.27Zm227.46-16.27l-87.98-111.97,.27-.22,88.9,111.24c-.4,.32-.8,.64-1.2,.95Zm-252.5-.81c-.44-.35-.88-.71-1.32-1.06l89.87-110.45,.15,.12-88.7,111.4Zm274.98-19.76l-103.78-97.5,.33-.35,104.41,96.83-.96,1.03Zm-297.28-.9l-.89-.97,104.81-96.39,.38,.42-104.3,96.94Zm316.29-22.56l-116.91-81.3,.17-.25,117.64,80.24c-.3,.44-.6,.87-.9,1.3Zm-335.23-1.12c-.28-.41-.56-.82-.84-1.24l118.12-79.52,.22,.32-117.5,80.44Zm350.77-25.32l-127.95-62.51,.29-.6,128.19,62-.54,1.1Zm-366.02-1c-.22-.45-.44-.9-.65-1.36l128.69-60.97,.16,.34-128.2,61.99Zm377.28-27.1l-135.74-43.02,.1-.33,136.1,41.88c-.15,.49-.3,.98-.46,1.47Zm-388.46-1.28c-.14-.46-.28-.92-.42-1.38l136.36-41.03,.13,.42-136.06,42Zm395.46-28.55l-140.71-21.84,.08-.52,140.84,21.02-.2,1.34Zm-402.24-1.1c-.07-.48-.14-.96-.21-1.45l140.96-20.2,.06,.42-140.81,21.23Zm404.67-28.89l-142.39-1.26v-.59h142.4v.28c0,.53,0,1.05,0,1.57Zm-264.55-1.44H46.52v-1.31l142.4,.74v.57Zm121.51-9.11l-.04-.3,140.78-21.43c.08,.52,.16,1.04,.23,1.56l-140.96,20.17Zm-120.84-.21l-140.87-20.78c.07-.49,.15-.98,.22-1.48l140.71,21.87-.06,.39Zm118.94-8.39l-.2-.65,136.05-42.05,.35,1.15-136.2,41.55Zm-116.95-.37L55.46,186.37l.42-1.34,135.85,42.7-.14,.46Zm113.68-8.14l-.24-.51,128.16-62.07,.57,1.18-128.48,61.4Zm-110.4-.27l-128.27-61.83,.58-1.19,127.95,62.51-.25,.51Zm105.92-7.6l-.36-.54,117.5-80.44,.69,1.02-117.83,79.96Zm-101.32-.37l-117.7-80.15c.28-.4,.55-.81,.83-1.21l117.11,81.01-.24,.35Zm95.43-7.08l-.18-.19,104.2-97.06c.37,.4,.73,.79,1.1,1.19l-105.12,96.06Zm-89.71-.09L100.68,107.9c.33-.36,.66-.71,1-1.07l103.79,97.49-.29,.31Zm83.09-6.11l-.31-.25,88.7-111.4c.39,.31,.77,.62,1.16,.93l-89.54,110.72Zm-76.35-.15L122.89,87.24c.4-.32,.8-.64,1.2-.95l88.11,111.87-.27,.22Zm68.89-5l-.41-.24,71.12-123.36,1.22,.71-71.93,122.89Zm-61.36-.15l-71.49-123.15c.42-.24,.84-.49,1.27-.73l70.58,123.68-.36,.21Zm53.12-3.88l-.37-.15,51.87-132.61c.46,.18,.93,.36,1.38,.55l-52.89,132.21Zm-44.92-.09L175.31,56.82c.47-.18,.94-.37,1.4-.55l51.29,132.84-.35,.14Zm36.31-2.61l-.37-.09,31.27-138.92c.49,.11,.98,.22,1.46,.34l-32.36,138.67Zm-27.72-.05l-31.76-138.81c.49-.11,.99-.22,1.49-.33l30.62,139.07-.35,.08Zm18.68-1.35l-.4-.03,10.29-142.03c.49,.04,.99,.07,1.48,.11l-11.37,141.94Zm-9.65-.01l-10.73-141.99c.49-.04,.98-.07,1.48-.11l9.65,142.07-.4,.03Z" style="fill:#f5f5f5;"></path><g><g><g><path d="M443.92,330.2h-180.75c-3.23,0-5.86-2.63-5.86-5.86V61.06c0-3.23,2.63-5.86,5.86-5.86h180.75c3.23,0,5.86,2.63,5.86,5.86V324.34c0,3.23-2.63,5.86-5.86,5.86ZM263.17,55.45c-3.09,0-5.61,2.52-5.61,5.61V324.34c0,3.09,2.52,5.61,5.61,5.61h180.75c3.09,0,5.61-2.52,5.61-5.61V61.06c0-3.09-2.52-5.61-5.61-5.61h-180.75Z" style="fill:#e0e0e0;"></path><path d="M235.49,330.2H54.75c-3.23,0-5.86-2.63-5.86-5.86V61.06c0-3.23,2.63-5.86,5.86-5.86H235.49c3.23,0,5.86,2.63,5.86,5.86V324.34c0,3.23-2.63,5.86-5.86,5.86ZM54.75,55.45c-3.09,0-5.61,2.52-5.61,5.61V324.34c0,3.09,2.52,5.61,5.61,5.61H235.49c3.09,0,5.61-2.52,5.61-5.61V61.06c0-3.09-2.52-5.61-5.61-5.61H54.75Z" style="fill:#e0e0e0;"></path></g><rect x="0" y="391.27" width="500" height=".25" style="fill:#e0e0e0;"></rect></g><rect x="51.67" y="405.53" width="16.06" height=".25" style="fill:#e0e0e0;"></rect><rect x="170.35" y="402.82" width="53.53" height=".25" style="fill:#e0e0e0;"></rect><rect x="68.73" y="414.82" width="36.25" height=".25" style="fill:#e0e0e0;"></rect><rect x="378.35" y="402.69" width="43.19" height=".25" style="fill:#e0e0e0;"></rect><rect x="430.45" y="402.69" width="6.33" height=".25" style="fill:#e0e0e0;"></rect><rect x="316.21" y="408.92" width="53.89" height=".25" style="fill:#e0e0e0;"></rect></g><g><polygon points="197.16 430.67 197.16 147.55 157.65 147.55 136.82 147.55 127.08 147.55 136.82 165.68 136.82 430.67 125.6 446.1 127.54 446.1 208.07 446.1 197.16 430.67" style="fill:#e0e0e0;"></polygon><path d="M140.95,147.55h49.52V404.17c0,13.48-10.94,24.42-24.42,24.42h-.69c-13.48,0-24.42-10.94-24.42-24.42V147.55h0Z" style="fill:#f0f0f0;"></path><rect x="122.32" y="142.7" width="81.03" height="6.86" rx="3.2" ry="3.2" style="fill:#e0e0e0;"></rect><path d="M166.81,428.59h0c-13.67,0-24.76-12.28-24.76-27.43v-105.1l49.52,.69v105.1c0,14.46-11.09,26.74-24.76,26.74Z" style="fill:#e6e6e6;"></path><ellipse cx="166.81" cy="296.06" rx="24.76" ry="3.1" style="fill:#e0e0e0;"></ellipse><path d="M166.83,423.65h0c-13.67,0-24.76-12.28-24.76-27.43v4.94c0,15.15,11.09,27.43,24.76,27.43h0c13.67,0,24.76-12.28,24.76-27.43v-4.94c0,15.15-11.09,27.43-24.76,27.43Z" style="fill:#fff; opacity:.5;"></path><g style="opacity:.5;"><path d="M149.21,243.6c-.21,25.04-.42,50.09-.63,75.13-.03,3.72-.04,7.58,1.02,10.98,1.06,3.4,3.53,6.21,6.11,5.67,2.02-.42,3.63-2.78,4.44-5.44,.81-2.67,.97-5.63,1.1-8.53,.97-21.08,.68-42.08,.66-63.21,0-6.5-.59-12.78-1.48-19.15-.6-4.32-3.38-7.17-6.4-6.91-3.01,.25-4.87,3.8-4.81,11.48" style="fill:#fff;"></path></g><path d="M159.36,215.2c0,4.86-2.42,8.8-5.39,8.8s-5.39-3.94-5.39-8.8,2.42-8.8,5.39-8.8,5.39,3.94,5.39,8.8Z" style="fill:#fff; opacity:.5;"></path><path d="M178.27,193c6.29-.34,12.59-.34,18.89,0-6.29,.34-12.59,.34-18.89,0h0Z" style="fill:#e0e0e0;"></path><path d="M178.27,241.38c6.29-.34,12.59-.34,18.89,0-6.29,.34-12.59,.34-18.89,0h0Z" style="fill:#e0e0e0;"></path><path d="M189.22,218.46c-.52,.06-1.04,.09-1.56,.13,0,.06,0-.5,0-.26h.01c3.16-.17,6.33-.18,9.48,.13-3.16,.31-6.33,.3-9.5,.13,0,.24,0-.32,0-.26,.52,.04,1.04,.07,1.56,.13h0Z" style="fill:#e0e0e0;"></path><path d="M178.27,285.48c6.29-.34,12.59-.34,18.89,0-6.29,.34-12.59,.34-18.89,0h0Z" style="fill:#e0e0e0;"></path><path d="M189.22,262.55c2.65-.34,5.3-.34,7.94,0-2.65,.34-5.3,.34-7.94,0h0Z" style="fill:#e0e0e0;"></path><path d="M178.27,329.57c6.29-.34,12.59-.34,18.89,0-6.29,.34-12.59,.34-18.89,0h0Z" style="fill:#e0e0e0;"></path><path d="M189.22,306.64c2.65-.34,5.3-.34,7.94,0-2.65,.34-5.3,.34-7.94,0h0Z" style="fill:#e0e0e0;"></path><path d="M178.27,373.66c6.29-.34,12.59-.34,18.89,0-6.29,.34-12.59,.34-18.89,0h0Z" style="fill:#e0e0e0;"></path><path d="M189.22,350.74c2.65-.34,5.3-.34,7.94,0-2.65,.34-5.3,.34-7.94,0h0Z" style="fill:#e0e0e0;"></path></g><g><g><path d="M406.64,379.29h0c-9.41,0-17.03-7.62-17.03-17.03V219.04l34.06,.65v143.22c0,8.76-7.62,16.38-17.03,16.38Z" style="fill:#e6e6e6;"></path><path d="M392.51,217.77v143.07c0,7.88,6.39,14.27,14.27,14.27s14.27-6.39,14.27-14.27V217.77h-28.55Z" style="fill:#f0f0f0;"></path><path d="M392.51,301.49v59.35c0,7.88,6.39,14.27,14.27,14.27s14.27-6.39,14.27-14.27v-59.35h-28.55Z" style="fill:#f5f5f5;"></path><path d="M406.79,373.03c-9.06-.17-14.27-7.58-14.27-15.46v3.27c0,7.88,6.39,14.27,14.27,14.27s14.27-6.39,14.27-14.27v-3.27c0,7.88-5.46,15.63-14.27,15.46Z" style="fill:#fff; opacity:.5;"></path><path d="M424.01,224.97h-34.73c-2.72,0-4.93-2.2-4.93-4.93h0c0-2.72,2.2-4.93,4.93-4.93h34.73c2.72,0,4.93,2.21,4.93,4.93h0c0,2.72-2.21,4.93-4.93,4.93Z" style="fill:#ebebeb;"></path><ellipse cx="406.79" cy="301.49" rx="14.27" ry="1.96" style="fill:#ebebeb;"></ellipse><path d="M399.62,284.85h0c-1.61,0-2.92-1.31-2.92-2.92v-34.42c0-1.4,1-2.6,2.37-2.87h0c1.8-.34,3.47,1.04,3.47,2.87v34.42c0,1.61-1.31,2.92-2.92,2.92Z" style="fill:#fff; opacity:.3;"></path><circle cx="399.88" cy="339.21" r="3.18" style="fill:#fff; opacity:.3;"></circle><path d="M417.09,317.78c.15,10.84,.16,21.67,0,32.51-.16-10.84-.15-21.67,0-32.51h0Z" style="fill:#fff;"></path></g><g><path d="M344.87,378.53h0c-9.41,0-17.03-7.62-17.03-17.03V218.28l34.06,.65v143.22c0,8.76-7.62,16.38-17.03,16.38Z" style="fill:#e6e6e6;"></path><path d="M330.74,217.01v143.07c0,7.88,6.39,14.27,14.27,14.27s14.27-6.39,14.27-14.27V217.01h-28.55Z" style="fill:#f0f0f0;"></path><path d="M330.74,300.73v59.35c0,7.88,6.39,14.27,14.27,14.27s14.27-6.39,14.27-14.27v-59.35h-28.55Z" style="fill:#f5f5f5;"></path><path d="M345.02,372.27c-9.06-.17-14.27-7.58-14.27-15.46v3.27c0,7.88,6.39,14.27,14.27,14.27s14.27-6.39,14.27-14.27v-3.27c0,7.88-5.46,15.63-14.27,15.46Z" style="fill:#fff; opacity:.5;"></path><path d="M362.24,224.21h-34.73c-2.72,0-4.93-2.2-4.93-4.92h0c0-2.72,2.2-4.93,4.93-4.93h34.73c2.72,0,4.93,2.2,4.93,4.93h0c0,2.72-2.21,4.92-4.93,4.92Z" style="fill:#ebebeb;"></path><ellipse cx="345.02" cy="300.73" rx="14.27" ry="1.96" style="fill:#ebebeb;"></ellipse><path d="M337.85,284.09h0c-1.61,0-2.92-1.31-2.92-2.92v-34.42c0-1.4,1-2.61,2.37-2.87h0c1.8-.34,3.47,1.04,3.47,2.87v34.42c0,1.61-1.31,2.92-2.92,2.92Z" style="fill:#fff; opacity:.3;"></path><circle cx="338.11" cy="338.45" r="3.18" style="fill:#fff; opacity:.3;"></circle><path d="M355.32,317.02c.15,10.84,.16,21.67,0,32.51-.16-10.84-.15-21.67,0-32.51h0Z" style="fill:#fff;"></path></g><g><path d="M282.58,379.29h0c-9.41,0-17.03-7.62-17.03-17.03V219.04l34.06,.65v143.22c0,8.76-7.62,16.38-17.03,16.38Z" style="fill:#e6e6e6;"></path><path d="M268.45,217.77v143.07c0,7.88,6.39,14.27,14.27,14.27s14.27-6.39,14.27-14.27V217.77h-28.55Z" style="fill:#f0f0f0;"></path><path d="M268.45,301.49v59.35c0,7.88,6.39,14.27,14.27,14.27s14.27-6.39,14.27-14.27v-59.35h-28.55Z" style="fill:#f5f5f5;"></path><path d="M282.73,373.03c-9.06-.17-14.27-7.58-14.27-15.46v3.27c0,7.88,6.39,14.27,14.27,14.27s14.27-6.39,14.27-14.27v-3.27c0,7.88-5.46,15.63-14.27,15.46Z" style="fill:#fff; opacity:.5;"></path><path d="M299.95,224.97h-34.73c-2.72,0-4.93-2.2-4.93-4.93h0c0-2.72,2.21-4.93,4.93-4.93h34.73c2.72,0,4.93,2.21,4.93,4.93h0c0,2.72-2.2,4.93-4.93,4.93Z" style="fill:#ebebeb;"></path><ellipse cx="282.73" cy="301.49" rx="14.27" ry="1.96" style="fill:#ebebeb;"></ellipse><path d="M275.56,284.85h0c-1.61,0-2.92-1.31-2.92-2.92v-34.42c0-1.4,1-2.6,2.37-2.87h0c1.8-.34,3.47,1.04,3.47,2.87v34.42c0,1.61-1.31,2.92-2.92,2.92Z" style="fill:#fff; opacity:.3;"></path><path d="M279,339.21c0,1.76-1.42,3.18-3.18,3.18s-3.18-1.42-3.18-3.18,1.42-3.18,3.18-3.18,3.18,1.42,3.18,3.18Z" style="fill:#fff; opacity:.3;"></path><path d="M293.02,317.78c.15,10.84,.16,21.67,0,32.51-.16-10.84-.15-21.67,0-32.51h0Z" style="fill:#fff;"></path></g><rect x="260.29" y="240.01" width="168.65" height="8.61" style="fill:#e6e6e6;"></rect></g><g><path d="M94.67,124.77s-.04,0-.07,0l-4.16-.56c-.27-.04-.47-.29-.43-.56,.04-.27,.29-.47,.56-.43l4.16,.56c.27,.04,.47,.29,.43,.56-.03,.25-.25,.43-.49,.43Z" style="fill:#e0e0e0;"></path><path d="M96.16,122.95c-.19,0-.38-.11-.46-.3l-1.54-3.59c-.11-.25,0-.55,.26-.66,.25-.11,.55,0,.66,.26l1.54,3.59c.11,.25,0,.55-.26,.66-.06,.03-.13,.04-.2,.04Z" style="fill:#e0e0e0;"></path><path d="M99.06,123.14c-.1,0-.2-.03-.28-.09-.23-.16-.28-.47-.13-.7l2.39-3.45c.16-.23,.47-.28,.7-.13,.23,.16,.28,.47,.13,.7l-2.39,3.45c-.1,.14-.25,.22-.41,.22Z" style="fill:#e0e0e0;"></path><path d="M99.97,130.96c-.2,0-.39-.12-.47-.32l-1.4-3.65c-.1-.26,.03-.55,.29-.65,.26-.1,.55,.03,.65,.29l1.4,3.65c.1,.26-.03,.55-.29,.65-.06,.02-.12,.03-.18,.03Z" style="fill:#e0e0e0;"></path><path d="M93.42,130.22c-.1,0-.21-.03-.3-.1-.22-.17-.26-.48-.1-.7l2.52-3.36c.16-.22,.48-.26,.7-.1,.22,.17,.26,.48,.1,.7l-2.52,3.36c-.1,.13-.25,.2-.4,.2Z" style="fill:#e0e0e0;"></path><path d="M103.87,125.58h-.03l-3.9-.26c-.28-.02-.48-.26-.47-.53,.02-.28,.29-.48,.53-.47l3.9,.26c.28,.02,.48,.26,.47,.53-.02,.26-.24,.47-.5,.47Z" style="fill:#e0e0e0;"></path></g><g><path d="M320.86,145.62c-.06,0-.12,0-.18-.01l-11.2-1.51c-.74-.1-1.25-.78-1.15-1.51,.1-.74,.79-1.26,1.51-1.15l11.2,1.51c.74,.1,1.25,.78,1.15,1.51-.09,.68-.67,1.17-1.33,1.17Z" style="fill:#e0e0e0;"></path><path d="M324.88,140.72c-.52,0-1.02-.3-1.24-.81l-4.15-9.66c-.29-.68,.02-1.47,.7-1.77,.68-.29,1.47,.02,1.77,.71l4.15,9.66c.29,.68-.02,1.47-.7,1.77-.17,.07-.35,.11-.53,.11Z" style="fill:#e0e0e0;"></path><path d="M332.66,141.24c-.27,0-.53-.08-.76-.24-.61-.42-.76-1.26-.34-1.87l6.43-9.3c.42-.62,1.26-.76,1.87-.34,.61,.42,.76,1.26,.34,1.87l-6.43,9.3c-.26,.38-.68,.58-1.11,.58Z" style="fill:#e0e0e0;"></path><path d="M335.13,162.29c-.54,0-1.05-.33-1.26-.86l-3.77-9.82c-.27-.69,.08-1.47,.77-1.74,.7-.27,1.47,.08,1.74,.77l3.77,9.82c.27,.69-.08,1.47-.77,1.74-.16,.06-.32,.09-.48,.09Z" style="fill:#e0e0e0;"></path><path d="M317.49,160.3c-.28,0-.57-.09-.81-.27-.59-.45-.71-1.29-.27-1.88l6.79-9.04c.44-.59,1.29-.71,1.88-.27,.59,.45,.71,1.29,.27,1.88l-6.79,9.04c-.26,.35-.67,.54-1.08,.54Z" style="fill:#e0e0e0;"></path><path d="M345.62,147.82s-.06,0-.09,0l-10.49-.69c-.74-.05-1.3-.69-1.26-1.43,.05-.74,.77-1.28,1.43-1.26l10.49,.69c.74,.05,1.3,.69,1.26,1.43-.05,.71-.64,1.26-1.34,1.26Z" style="fill:#e0e0e0;"></path></g><g><path d="M385.37,114.33s-.02-.05-.03-.07l-1.73-4.58c-.11-.3,.04-.64,.34-.75,.3-.11,.64,.04,.75,.34l1.73,4.58c.11,.3-.04,.64-.34,.75-.28,.11-.58-.01-.72-.27Z" style="fill:#e0e0e0;"></path><path d="M388.07,114.85c-.11-.2-.09-.45,.06-.64l2.83-3.58c.2-.25,.57-.3,.82-.1,.25,.2,.3,.57,.09,.82l-2.83,3.57c-.2,.25-.57,.3-.82,.1-.06-.05-.11-.11-.15-.18Z" style="fill:#e0e0e0;"></path><path d="M389.48,117.93c-.05-.1-.08-.22-.07-.34,.03-.32,.32-.55,.64-.52l4.87,.54c.32,.03,.55,.32,.52,.64-.03,.32-.32,.55-.64,.52l-4.87-.54c-.2-.02-.36-.14-.45-.3Z" style="fill:#e0e0e0;"></path><path d="M381.95,123.2c-.11-.21-.09-.47,.07-.66l2.97-3.46c.21-.24,.58-.27,.82-.06,.25,.21,.27,.58,.06,.82l-2.97,3.46c-.21,.24-.58,.27-.82,.06-.06-.05-.1-.1-.13-.17Z" style="fill:#e0e0e0;"></path><path d="M379.08,116.06c-.06-.11-.08-.23-.06-.36,.05-.32,.35-.54,.66-.49l4.85,.73c.32,.05,.54,.34,.49,.66-.05,.32-.35,.54-.66,.49l-4.85-.73c-.19-.03-.34-.14-.43-.3Z" style="fill:#e0e0e0;"></path><path d="M389.64,124.23l-.02-.03-1.9-4.15c-.13-.29,0-.64,.29-.77,.29-.13,.65,.03,.77,.29l1.9,4.15c.13,.29,0,.64-.29,.77-.28,.13-.61,.02-.76-.25Z" style="fill:#e0e0e0;"></path></g><g><path d="M64.33,268.5s-.02-.05-.03-.07l-1.73-4.58c-.11-.3,.04-.64,.34-.75,.3-.11,.64,.04,.75,.34l1.73,4.58c.11,.3-.04,.64-.34,.75-.28,.11-.58-.01-.72-.27Z" style="fill:#e0e0e0;"></path><path d="M67.02,269.03c-.11-.2-.09-.45,.06-.64l2.83-3.58c.2-.25,.57-.3,.82-.1,.25,.2,.3,.57,.09,.82l-2.83,3.57c-.2,.25-.57,.3-.82,.1-.06-.05-.11-.11-.15-.18Z" style="fill:#e0e0e0;"></path><path d="M68.43,272.11c-.05-.1-.08-.22-.07-.34,.03-.32,.32-.55,.64-.52l4.87,.54c.32,.03,.55,.32,.52,.64-.03,.32-.32,.55-.64,.52l-4.87-.54c-.2-.02-.36-.14-.45-.3Z" style="fill:#e0e0e0;"></path><path d="M60.9,277.38c-.11-.21-.09-.47,.07-.66l2.97-3.46c.21-.24,.58-.27,.82-.06,.25,.21,.27,.58,.06,.82l-2.97,3.46c-.21,.24-.58,.27-.82,.06-.06-.05-.1-.11-.13-.17Z" style="fill:#e0e0e0;"></path><path d="M58.03,270.24c-.06-.11-.08-.23-.06-.36,.05-.32,.35-.54,.66-.49l4.85,.73c.32,.05,.54,.34,.49,.66-.05,.32-.35,.54-.66,.49l-4.85-.73c-.19-.03-.34-.14-.43-.3Z" style="fill:#e0e0e0;"></path><path d="M68.59,278.41l-.02-.03-1.9-4.15c-.13-.29,0-.64,.29-.77,.29-.13,.65,.03,.77,.29l1.9,4.15c.13,.29,0,.64-.29,.77-.28,.13-.61,.02-.76-.25Z" style="fill:#e0e0e0;"></path></g><g><path d="M293.49,96.97s-.02-.05-.03-.07l-1.73-4.58c-.11-.3,.04-.64,.34-.75,.3-.11,.64,.04,.75,.34l1.73,4.58c.11,.3-.04,.64-.34,.75-.28,.11-.58-.01-.72-.27Z" style="fill:#e0e0e0;"></path><path d="M296.18,97.49c-.11-.2-.09-.45,.06-.64l2.83-3.58c.2-.25,.57-.3,.82-.1,.25,.2,.3,.57,.09,.82l-2.83,3.57c-.2,.25-.57,.3-.82,.1-.06-.05-.11-.11-.15-.18Z" style="fill:#e0e0e0;"></path><path d="M297.59,100.57c-.05-.1-.08-.22-.07-.34,.03-.32,.32-.55,.64-.52l4.87,.54c.32,.03,.55,.32,.52,.64-.03,.32-.32,.55-.64,.52l-4.87-.54c-.2-.02-.36-.14-.45-.3Z" style="fill:#e0e0e0;"></path><path d="M290.07,105.84c-.11-.21-.09-.47,.07-.66l2.97-3.46c.21-.24,.58-.27,.82-.06,.25,.21,.27,.58,.06,.82l-2.97,3.46c-.21,.24-.58,.27-.82,.06-.06-.05-.1-.1-.13-.17Z" style="fill:#e0e0e0;"></path><path d="M287.19,98.7c-.06-.11-.08-.23-.06-.36,.05-.32,.35-.54,.66-.49l4.85,.73c.32,.05,.54,.34,.49,.66-.05,.32-.35,.54-.66,.49l-4.85-.73c-.19-.03-.34-.14-.43-.3Z" style="fill:#e0e0e0;"></path><path d="M297.75,106.87l-.02-.03-1.9-4.15c-.13-.29,0-.64,.29-.77,.29-.13,.65,.03,.77,.29l1.9,4.15c.13,.29,0,.64-.29,.77-.28,.13-.61,.02-.76-.25Z" style="fill:#e0e0e0;"></path></g></g><g id="freepik--Shadow--inject-13"><path d="M458.88,449.06c0,3.39-93.52,6.13-208.88,6.13s-208.88-2.75-208.88-6.13,93.52-6.13,208.88-6.13,208.88,2.75,208.88,6.13Z" style="fill:#f5f5f5;"></path></g><g id="freepik--Flask_3--inject-13"><g><path d="M314.52,280.1v155.7c0,6.37,5.16,11.53,11.53,11.53h110.43c6.37,0,11.53-5.16,11.53-11.53v-135.51l18.56-18.56-152.06-1.62Z" style="fill:#407BFF;"></path><path d="M314.52,280.1v155.7c0,6.37,5.16,11.53,11.53,11.53h110.43c6.37,0,11.53-5.16,11.53-11.53v-135.51l18.56-18.56-152.06-1.62Z" style="fill:#fff; opacity:.7;"></path><path d="M321.46,428.86v-141.75l129.97-.04-10.34,10.34v131.45c0,6.37-5.16,11.53-11.53,11.53h-96.55c-6.37,0-11.53-5.16-11.53-11.53Z" style="fill:#407BFF; opacity:.3;"></path><g><path d="M466.79,283.72h-151.29c-2.17,0-3.92-1.76-3.92-3.92h0c0-2.17,1.76-3.92,3.92-3.92h151.29c2.17,0,3.92,1.76,3.92,3.92h0c0,2.17-1.76,3.92-3.92,3.92Z" style="fill:#407BFF;"></path><path d="M466.79,283.72h-151.29c-2.17,0-3.92-1.76-3.92-3.92h0c0-2.17,1.76-3.92,3.92-3.92h151.29c2.17,0,3.92,1.76,3.92,3.92h0c0,2.17-1.76,3.92-3.92,3.92Z" style="fill:#fff; opacity:.7;"></path></g><polygon points="461.23 287.07 314.52 287.07 314.52 283.59 464.54 283.59 461.23 287.07" style="opacity:.3;"></polygon><path d="M321.46,363.71v65.15c0,6.37,5.16,11.53,11.53,11.53h96.55c6.37,0,11.53-5.16,11.53-11.53v-65.15h-119.62Z" style="fill:#407BFF;"></path><path d="M321.46,363.71v65.15c0,6.37,5.16,11.53,11.53,11.53h96.55c6.37,0,11.53-5.16,11.53-11.53v-65.15h-119.62Z" style="opacity:.3;"></path><path d="M441.08,363.71c0,2.35-26.78,4.26-59.81,4.26s-59.81-1.91-59.81-4.26,26.78-4.26,59.81-4.26,59.81,1.91,59.81,4.26Z" style="fill:#407BFF;"></path><path d="M441.08,363.71c0,2.35-26.78,4.26-59.81,4.26s-59.81-1.91-59.81-4.26,26.78-4.26,59.81-4.26,59.81,1.91,59.81,4.26Z" style="opacity:.5;"></path><g><path d="M378.01,399.22c0,2.12-1.72,3.83-3.83,3.83s-3.83-1.72-3.83-3.83,1.72-3.83,3.83-3.83,3.83,1.72,3.83,3.83Z" style="opacity:.1;"></path><path d="M414.09,416.85c0,2.12-1.72,3.83-3.83,3.83s-3.83-1.72-3.83-3.83,1.72-3.83,3.83-3.83,3.83,1.72,3.83,3.83Z" style="opacity:.1;"></path><path d="M419.77,412.22c0,1.46-1.19,2.65-2.65,2.65s-2.65-1.19-2.65-2.65,1.19-2.65,2.65-2.65,2.65,1.19,2.65,2.65Z" style="opacity:.1;"></path><path d="M391.53,411.88c0,3.91-3.17,7.08-7.08,7.08s-7.08-3.17-7.08-7.08,3.17-7.08,7.08-7.08,7.08,3.17,7.08,7.08Z" style="opacity:.1;"></path></g><g style="opacity:.3;"><path d="M340.67,319.77c4.48,6.25,3.62,14.96,3.68,17.04,.42,14.93,.38,13.71,.17,28.66-.07,4.61-.66,9.36-2.61,13.04-1.96,3.69-6.06,5.8-9.27,3.36-3.47-2.63-4.03-8.64-4.16-13.66-.26-10.38-.51-20.76-.77-31.14-.1-4.19-.2-8.46,.7-12.39,.9-3.93,2.71-6.88,5.78-8.02,0,0,3.77-.68,6.48,3.1Z" style="fill:#fff;"></path></g><path d="M341.67,396.04c0,3.87-3.14,7.02-7.02,7.02s-7.02-3.14-7.02-7.02,3.14-7.02,7.02-7.02,7.02,3.14,7.02,7.02Z" style="fill:#fff; opacity:.3;"></path><g><g><rect x="405.92" y="332.96" width="22.49" height=".75" style="fill:#263238;"></rect><rect x="414.7" y="322.62" width="13.71" height=".75" style="fill:#263238;"></rect></g><g><rect x="405.92" y="312.7" width="22.49" height=".75" style="fill:#263238;"></rect><rect x="414.7" y="302.37" width="13.71" height=".75" style="fill:#263238;"></rect></g><g><rect x="405.92" y="354.66" width="22.49" height=".75" style="fill:#263238;"></rect><rect x="414.7" y="344.33" width="13.71" height=".75" style="fill:#263238;"></rect></g><g><rect x="405.92" y="376.37" width="22.49" height=".75" style="fill:#263238;"></rect><rect x="414.7" y="366.03" width="13.71" height=".75" style="fill:#263238;"></rect></g><g><rect x="405.92" y="398.07" width="22.49" height=".75" style="fill:#263238;"></rect><rect x="414.7" y="387.74" width="13.71" height=".75" style="fill:#263238;"></rect></g><g><rect x="405.92" y="419.77" width="22.49" height=".75" style="fill:#263238;"></rect><rect x="414.7" y="409.44" width="13.71" height=".75" style="fill:#263238;"></rect></g></g></g></g><g id="freepik--Flask_2--inject-13"><g><path d="M268.03,304.21v-95.89h-40.59v95.91c-33.92,8.98-58.92,39.88-58.92,76.62,0,27.05,13.56,50.94,34.24,65.24l90.47-.3c20.44-14.33,33.81-38.08,33.81-64.94,0-36.77-25.05-67.7-59.01-76.65Z" style="fill:#407BFF;"></path><path d="M268.03,304.21v-95.89h-40.59v95.91c-33.92,8.98-58.92,39.88-58.92,76.62,0,27.05,13.56,50.94,34.24,65.24l90.47-.3c20.44-14.33,33.81-38.08,33.81-64.94,0-36.77-25.05-67.7-59.01-76.65Z" style="fill:#fff; opacity:.7;"></path><path d="M204.98,439.16c-18.52-13.62-29.52-35.26-29.52-58.3,0-32.78,22.11-61.53,53.76-69.92l5.16-1.37v-98.78h26.72v98.76l5.17,1.36c31.7,8.35,53.84,37.11,53.84,69.94,0,22.85-10.85,44.38-29.13,58.01l-86.01,.29Z" style="fill:#407BFF; opacity:.3;"></path><rect x="220.6" y="199.9" width="53.74" height="10.89" rx="5.45" ry="5.45" style="fill:#407BFF;"></rect><rect x="220.6" y="199.9" width="53.74" height="10.89" rx="5.45" ry="5.45" style="fill:#fff; opacity:.7;"></rect><path d="M175.46,380.86c0,23.04,10.99,44.68,29.52,58.3l86.01-.29c18.28-13.64,29.13-35.16,29.13-58.01H175.46Z" style="fill:#407BFF;"></path><ellipse cx="247.68" cy="380.86" rx="72.22" ry="3.67" style="fill:#407BFF;"></ellipse><ellipse cx="247.68" cy="380.86" rx="72.22" ry="3.67" style="opacity:.3;"></ellipse><rect x="227.44" y="210.79" width="40.59" height="3.65" style="opacity:.3;"></rect><g style="opacity:.3;"><path d="M228.19,324.52c3.53,1.39,6.27,4.54,6.49,8.33,.22,3.78-1.43,7.45-3.55,10.59-2.12,3.14-4.74,5.92-6.82,9.09-2.48,3.77-4.16,8-6.23,12-2.08,4.01-4.68,7.91-8.45,10.38-3.78,2.47-8.95,3.22-12.8,.85-4.68-2.88-5.94-9.15-5.62-14.64,.92-16.33,12.56-31.53,28.08-36.69,0,0,4.97-1.46,8.91,.09Z" style="fill:#fff;"></path></g><circle cx="198.83" cy="398.44" r="9.77" transform="translate(-234.53 500.84) rotate(-76.77)" style="fill:#fff; opacity:.3;"></circle><path d="M290.84,431.06c15.09-18.08,23.18-40.95,22.89-64.5,6.19,23.26-3.44,50.33-22.89,64.5h0Z" style="fill:#fff; opacity:.3;"></path><g><path d="M227.55,402.65c0,2.12-1.72,3.83-3.83,3.83s-3.83-1.72-3.83-3.83,1.72-3.83,3.83-3.83,3.83,1.72,3.83,3.83Z" style="opacity:.1;"></path><circle cx="259.81" cy="420.27" r="3.83" style="opacity:.1;"></circle><path d="M269.31,415.65c0,1.46-1.19,2.65-2.65,2.65s-2.65-1.19-2.65-2.65,1.19-2.65,2.65-2.65,2.65,1.19,2.65,2.65Z" style="opacity:.1;"></path><path d="M241.07,415.3c0,3.91-3.17,7.08-7.08,7.08s-7.08-3.17-7.08-7.08,3.17-7.08,7.08-7.08,7.08,3.17,7.08,7.08Z" style="opacity:.1;"></path></g></g></g><g id="freepik--Flask_1--inject-13"><g><ellipse cx="111.32" cy="374.29" rx="31.77" ry="2.47"></ellipse><path d="M52.11,435.11l47.76-106.14v-1.46c.01-.13,.1-13.24,.15-26.23,.03-7.64,.03-13.74,.02-18.14,0-.5,0-7.91,0-8.37h22.31v53.44l48.14,106.9c.86,1.9-.53,4.06-2.62,4.06H54.73c-2.09,0-3.48-2.15-2.62-4.06Z" style="fill:#407BFF; opacity:.3;"></path><path d="M130.72,274.76h-39.41c-2.8,0-5.07-2.27-5.07-5.07h0c0-2.8,2.27-5.07,5.07-5.07h39.41c2.8,0,5.07,2.27,5.07,5.07h0c0,2.8-2.27,5.07-5.07,5.07Z" style="fill:#407BFF;"></path><path d="M92.94,274.76c.37,0,0,52.7,0,52.7l-47.77,106.15c-2.64,5.86,1.65,12.49,8.08,12.49h116.67c6.15,0,10.26-6.35,7.73-11.96l-48.37-107.42v-51.96h-36.33Z" style="fill:#407BFF;"></path><path d="M92.94,274.76c.37,0,0,52.7,0,52.7l-47.77,106.15c-2.64,5.86,1.65,12.49,8.08,12.49h116.67c6.15,0,10.26-6.35,7.73-11.96l-48.37-107.42v-51.96h-36.33Z" style="fill:#fff; opacity:.7;"></path><path d="M52.11,435.11l47.76-106.14v-1.46c.01-.13,.1-13.24,.15-26.23,.03-7.64,.03-13.74,.02-18.14,0-.5,0-7.91,0-8.37h22.31v53.44l48.14,106.9c.86,1.9-.53,4.06-2.62,4.06H54.73c-2.09,0-3.48-2.15-2.62-4.06Z" style="fill:#407BFF; opacity:.3;"></path><rect x="92.94" y="274.76" width="36.33" height="3.57" style="opacity:.3;"></rect><path d="M170.48,435.11l-27.5-61.07-63.5,.23-27.38,60.84c-.86,1.9,.54,4.06,2.62,4.06h113.13c2.09,0,3.48-2.15,2.62-4.06Z" style="fill:#407BFF;"></path><g style="opacity:.2;"><path d="M169.2,432.04c-.37,.18-.79,.28-1.24,.28H54.83c-.45,0-.87-.11-1.24-.28l-1.38,3.07c-.86,1.9,.54,4.06,2.62,4.06h113.13c2.09,0,3.48-2.15,2.62-4.06l-1.38-3.07Z"></path></g><ellipse cx="111.3" cy="374.29" rx="31.77" ry="2.47" style="fill:#407BFF;"></ellipse><ellipse cx="111.3" cy="374.29" rx="31.77" ry="2.47" style="opacity:.3;"></ellipse><path d="M130.72,274.76h-39.41c-2.8,0-5.07-2.27-5.07-5.07h0c0-2.8,2.27-5.07,5.07-5.07h39.41c2.8,0,5.07,2.27,5.07,5.07h0c0,2.8-2.27,5.07-5.07,5.07Z" style="fill:#fff; opacity:.7;"></path><path d="M107.22,267.78c-.56-.49-1.26-.5-1.93-.5h-11.93c-.62,0-1.31,.04-1.75,.65-.44,.61-1,2.56,1.22,2.6,5.16,.26,8.72,.7,13.52,.26,.49-.04,1.03-.14,1.33-.66,.41-.72,.1-1.86-.47-2.35Z" style="fill:#fff;"></path><circle cx="111.4" cy="268.95" r="1.68" style="fill:#fff;"></circle><g style="opacity:.3;"><path d="M108.06,349.55c2.6,1.95,1.14,5.71,.63,7.24-3.66,10.93-5.63,19.14-9.91,29.91-1.32,3.32-3.17,6.59-6.04,8.72-2.87,2.13-7.38,2.52-9.78-.13-2.6-2.87-1.51-7.38-.26-11.05l7.73-22.77c1.04-3.06,2.11-6.18,4.04-8.78,1.93-2.59,4.91-4.62,8.14-4.6,0,0,3.87,.29,5.44,1.46Z" style="fill:#fff;"></path></g><path d="M86.74,413.15c-2.02,4.98-6.46,7.89-9.92,6.48-3.45-1.4-4.61-6.58-2.59-11.56,2.02-4.98,6.46-7.89,9.92-6.48,3.45,1.4,4.61,6.58,2.59,11.56Z" style="fill:#fff; opacity:.3;"></path><path d="M150.48,419.1c0,2.33-1.89,4.21-4.21,4.21s-4.21-1.89-4.21-4.21,1.89-4.21,4.21-4.21,4.21,1.89,4.21,4.21Z" style="opacity:.2;"></path><path d="M124.07,417.41c0,3.26-2.64,5.9-5.9,5.9s-5.9-2.64-5.9-5.9,2.64-5.9,5.9-5.9,5.9,2.64,5.9,5.9Z" style="opacity:.2;"></path><path d="M128.98,408.34c0,1.63-1.32,2.95-2.95,2.95s-2.95-1.32-2.95-2.95,1.32-2.95,2.95-2.95,2.95,1.32,2.95,2.95Z" style="opacity:.2;"></path><path d="M137.04,417.83c0,1.32-1.07,2.39-2.39,2.39s-2.39-1.07-2.39-2.39,1.07-2.39,2.39-2.39,2.39,1.07,2.39,2.39Z" style="opacity:.2;"></path></g></g><g id="freepik--Sparkles--inject-13"><g><path d="M348.65,212.86s-.09,0-.13,0l-8.09-1.09c-.55-.07-.93-.58-.86-1.12,.07-.55,.56-.93,1.12-.86l8.09,1.09c.55,.07,.93,.58,.86,1.12-.07,.5-.5,.87-.99,.87Z" style="fill:#407BFF;"></path><path d="M351.55,209.32c-.39,0-.76-.23-.92-.61l-3-6.98c-.22-.51,.02-1.1,.52-1.31,.51-.22,1.09,.02,1.31,.52l3,6.98c.22,.51-.02,1.1-.52,1.31-.13,.06-.26,.08-.39,.08Z" style="fill:#407BFF;"></path><path d="M357.17,209.7c-.2,0-.39-.06-.57-.18-.46-.31-.57-.94-.25-1.39l4.64-6.71c.31-.46,.94-.57,1.39-.25,.46,.31,.57,.94,.25,1.39l-4.64,6.71c-.19,.28-.51,.43-.82,.43Z" style="fill:#407BFF;"></path><path d="M358.95,224.89c-.4,0-.78-.24-.93-.64l-2.72-7.09c-.2-.52,.06-1.09,.58-1.29,.52-.2,1.09,.06,1.29,.58l2.72,7.09c.2,.52-.06,1.09-.58,1.29-.12,.05-.24,.07-.36,.07Z" style="fill:#407BFF;"></path><path d="M346.22,223.46c-.21,0-.42-.07-.6-.2-.44-.33-.53-.96-.2-1.4l4.9-6.53c.33-.44,.96-.53,1.4-.2,.44,.33,.53,.96,.2,1.4l-4.9,6.53c-.2,.26-.5,.4-.8,.4Z" style="fill:#407BFF;"></path><path d="M366.53,214.44s-.04,0-.07,0l-7.58-.5c-.55-.04-.97-.51-.93-1.06,.04-.55,.5-.97,1.06-.93l7.58,.5c.55,.04,.97,.51,.93,1.06-.04,.53-.47,.93-1,.93Z" style="fill:#407BFF;"></path></g><g><path d="M393.98,180.26s-.09,0-.13,0l-4.51-.61c-.55-.07-.93-.58-.86-1.12,.07-.55,.58-.93,1.12-.86l4.51,.61c.55,.07,.93,.58,.86,1.12-.07,.5-.5,.87-.99,.87Z" style="fill:#407BFF;"></path><path d="M395.59,178.29c-.39,0-.76-.23-.92-.61l-1.67-3.89c-.22-.51,.02-1.1,.52-1.31,.51-.22,1.1,.02,1.31,.52l1.67,3.89c.22,.51-.02,1.1-.52,1.31-.13,.06-.26,.08-.39,.08Z" style="fill:#407BFF;"></path><path d="M398.73,178.5c-.2,0-.39-.06-.57-.18-.45-.31-.57-.94-.25-1.39l2.59-3.74c.31-.46,.94-.57,1.39-.25,.45,.31,.57,.94,.25,1.39l-2.59,3.74c-.19,.28-.51,.43-.82,.43Z" style="fill:#407BFF;"></path><path d="M399.72,186.97c-.4,0-.78-.24-.93-.64l-1.52-3.95c-.2-.52,.06-1.09,.58-1.29,.52-.2,1.09,.06,1.29,.58l1.52,3.95c.2,.52-.06,1.09-.58,1.29-.12,.05-.24,.07-.36,.07Z" style="fill:#407BFF;"></path><path d="M392.62,186.17c-.21,0-.42-.07-.6-.2-.44-.33-.53-.96-.2-1.4l2.73-3.64c.33-.44,.96-.53,1.4-.2,.44,.33,.53,.96,.2,1.4l-2.73,3.64c-.2,.26-.5,.4-.8,.4Z" style="fill:#407BFF;"></path><path d="M403.95,181.15s-.04,0-.07,0l-4.23-.28c-.55-.04-.97-.51-.93-1.06,.04-.55,.52-.97,1.06-.93l4.23,.28c.55,.04,.97,.51,.93,1.06-.04,.53-.47,.93-1,.93Z" style="fill:#407BFF;"></path></g><g><path d="M407.78,249.84s-.04,0-.07,0l-4.16-.56c-.27-.04-.47-.29-.43-.56,.04-.27,.29-.47,.56-.43l4.16,.56c.27,.04,.47,.29,.43,.56-.03,.25-.25,.43-.49,.43Z" style="fill:#407BFF;"></path><path d="M409.27,248.02c-.19,0-.38-.11-.46-.3l-1.54-3.59c-.11-.25,0-.55,.26-.66,.25-.11,.55,0,.66,.26l1.54,3.59c.11,.25,0,.55-.26,.66-.06,.03-.13,.04-.2,.04Z" style="fill:#407BFF;"></path><path d="M412.17,248.22c-.1,0-.2-.03-.28-.09-.23-.16-.28-.47-.13-.7l2.39-3.45c.16-.23,.47-.28,.7-.13,.23,.16,.28,.47,.13,.7l-2.39,3.45c-.1,.14-.25,.22-.41,.22Z" style="fill:#407BFF;"></path><path d="M413.08,256.03c-.2,0-.39-.12-.47-.32l-1.4-3.65c-.1-.26,.03-.55,.29-.65,.26-.1,.55,.03,.65,.29l1.4,3.65c.1,.26-.03,.55-.29,.65-.06,.02-.12,.03-.18,.03Z" style="fill:#407BFF;"></path><path d="M406.53,255.3c-.1,0-.21-.03-.3-.1-.22-.17-.27-.48-.1-.7l2.52-3.36c.17-.22,.48-.26,.7-.1,.22,.17,.26,.48,.1,.7l-2.52,3.36c-.1,.13-.25,.2-.4,.2Z" style="fill:#407BFF;"></path><path d="M416.98,250.66h-.03l-3.9-.26c-.28-.02-.48-.26-.47-.53,.02-.28,.28-.48,.53-.47l3.9,.26c.28,.02,.48,.26,.47,.53-.02,.26-.24,.47-.5,.47Z" style="fill:#407BFF;"></path></g><g><path d="M92.99,213.97c-.35,0-.7-.19-.88-.52-.26-.48-.09-1.09,.4-1.36l4.89-2.66c.49-.27,1.09-.09,1.36,.4,.26,.48,.09,1.09-.4,1.36l-4.89,2.66c-.15,.08-.32,.12-.48,.12Z" style="fill:#407BFF;"></path><path d="M98.16,207.97c-.2,0-.4-.06-.57-.18l-4.27-3.01c-.45-.32-.56-.94-.24-1.39,.32-.45,.94-.56,1.39-.24l4.27,3.01c.45,.32,.56,.94,.24,1.39-.19,.28-.5,.42-.82,.42Z" style="fill:#407BFF;"></path><path d="M101.41,205.88h0c-.55,0-1-.46-.99-1.01l.05-5.99c0-.55,.45-.99,1-.99h0c.55,0,1,.46,.99,1.01l-.05,5.99c0,.55-.45,.99-1,.99Z" style="fill:#407BFF;"></path><path d="M108.09,214.38c-.21,0-.43-.07-.61-.21l-4.16-3.19c-.44-.34-.52-.96-.19-1.4s.96-.52,1.4-.19l4.16,3.19c.44,.34,.52,.96,.19,1.4-.2,.26-.49,.39-.79,.39Z" style="fill:#407BFF;"></path><path d="M100.5,218.75h-.05c-.55-.03-.98-.49-.95-1.04l.27-5.98c.02-.55,.51-.96,1.04-.95,.55,.02,.98,.49,.95,1.04l-.27,5.98c-.02,.54-.47,.96-1,.96Z" style="fill:#407BFF;"></path><path d="M103.99,207.73c-.33,0-.65-.16-.84-.46-.3-.46-.16-1.08,.3-1.38l4.38-2.81c.47-.3,1.08-.16,1.38,.3,.3,.46,.16,1.08-.3,1.38l-4.38,2.81c-.17,.11-.35,.16-.54,.16Z" style="fill:#407BFF;"></path></g><g><path d="M176.2,123.39c-.35,0-.7-.19-.88-.52-.26-.48-.09-1.09,.4-1.36l6.66-3.63c.48-.27,1.09-.08,1.36,.4,.26,.48,.09,1.09-.4,1.36l-6.66,3.63c-.15,.08-.32,.12-.48,.12Z" style="fill:#407BFF;"></path><path d="M182.94,115.21c-.2,0-.4-.06-.57-.18l-5.83-4.1c-.45-.32-.56-.94-.24-1.39,.32-.45,.94-.56,1.39-.24l5.83,4.1c.45,.32,.56,.94,.24,1.39-.19,.28-.5,.42-.82,.42Z" style="fill:#407BFF;"></path><path d="M187.37,112.37h0c-.55,0-1-.46-.99-1.01l.07-8.16c0-.55,.45-.99,1-.99h0c.55,0,1,.46,.99,1.01l-.07,8.16c0,.55-.45,.99-1,.99Z" style="fill:#407BFF;"></path><path d="M197.74,123.95c-.21,0-.43-.07-.61-.21l-5.68-4.34c-.44-.34-.52-.96-.19-1.4,.34-.44,.96-.52,1.4-.19l5.68,4.34c.44,.34,.52,.96,.19,1.4-.2,.26-.49,.39-.79,.39Z" style="fill:#407BFF;"></path><path d="M187.4,129.37h0c-.55,0-1-.45-1-1l.02-8.16c0-.55,.45-1,1-1h0c.55,0,1,.45,1,1l-.02,8.16c0,.55-.45,1-1,1Z" style="fill:#407BFF;"></path><path d="M190.89,114.89c-.33,0-.65-.16-.84-.46-.3-.46-.16-1.08,.3-1.38l5.97-3.84c.46-.3,1.08-.16,1.38,.3,.3,.46,.16,1.08-.3,1.38l-5.97,3.84c-.17,.11-.35,.16-.54,.16Z" style="fill:#407BFF;"></path></g><g><path d="M243.32,171.35s-.04,0-.07,0l-4.16-.56c-.27-.04-.47-.29-.43-.56,.04-.27,.28-.47,.56-.43l4.16,.56c.27,.04,.47,.29,.43,.56-.03,.25-.25,.43-.5,.43Z" style="fill:#407BFF;"></path><path d="M244.81,169.53c-.19,0-.38-.11-.46-.3l-1.54-3.59c-.11-.25,0-.55,.26-.66,.25-.11,.55,0,.66,.26l1.54,3.59c.11,.25,0,.55-.26,.66-.06,.03-.13,.04-.2,.04Z" style="fill:#407BFF;"></path><path d="M247.7,169.72c-.1,0-.2-.03-.28-.09-.23-.16-.28-.47-.13-.7l2.39-3.45c.16-.23,.47-.28,.7-.13,.23,.16,.28,.47,.13,.7l-2.39,3.45c-.1,.14-.25,.22-.41,.22Z" style="fill:#407BFF;"></path><path d="M248.62,177.54c-.2,0-.39-.12-.47-.32l-1.4-3.65c-.1-.26,.03-.55,.29-.65,.26-.1,.55,.03,.65,.29l1.4,3.65c.1,.26-.03,.55-.29,.65-.06,.02-.12,.03-.18,.03Z" style="fill:#407BFF;"></path><path d="M242.06,176.8c-.1,0-.21-.03-.3-.1-.22-.17-.27-.48-.1-.7l2.52-3.36c.17-.22,.48-.27,.7-.1,.22,.17,.27,.48,.1,.7l-2.52,3.36c-.1,.13-.25,.2-.4,.2Z" style="fill:#407BFF;"></path><path d="M252.52,172.17h-.03l-3.9-.26c-.28-.02-.48-.26-.47-.53,.02-.28,.26-.48,.53-.47l3.9,.26c.28,.02,.48,.26,.47,.53-.02,.26-.24,.47-.5,.47Z" style="fill:#407BFF;"></path></g></g></svg>
